<?xml version="1.0" encoding="UTF-8" standalone="no" ?>
<!DOCTYPE svg PUBLIC "-//W3C//DTD SVG 1.1//EN" "http://www.w3.org/Graphics/SVG/1.1/DTD/svg11.dtd">
<svg xmlns="http://www.w3.org/2000/svg" xmlns:xlink="http://www.w3.org/1999/xlink" version="1.1" width="1080" height="1080" viewBox="0 0 1080 1080" xml:space="preserve">
<desc>Created with Fabric.js 5.2.4</desc>
<defs>
</defs>
<g transform="matrix(1 0 0 1 540 540)" id="5715afe7-7ebb-4fd6-91d0-6deb8c34e49d"  >
<rect style="stroke: none; stroke-width: 1; stroke-dasharray: none; stroke-linecap: butt; stroke-dashoffset: 0; stroke-linejoin: miter; stroke-miterlimit: 4; fill: rgb(255,255,255); fill-rule: nonzero; opacity: 1; visibility: hidden;" vector-effect="non-scaling-stroke"  x="-540" y="-540" rx="0" ry="0" width="1080" height="1080" />
</g>
<g transform="matrix(1 0 0 1 540 540)" id="078583b7-4704-4b57-b0fe-f0f1729b184c"  >
</g>
<g transform="matrix(2.64 0 0 2.64 540 540)"  >
<g style="" vector-effect="non-scaling-stroke"   >
		<g transform="matrix(1 0 0 1 0 0)"  >
<rect style="stroke: none; stroke-width: 1; stroke-dasharray: none; stroke-linecap: butt; stroke-dashoffset: 0; stroke-linejoin: miter; stroke-miterlimit: 4; fill: rgb(255,255,255); fill-rule: nonzero; opacity: 1; visibility: hidden;" vector-effect="non-scaling-stroke"  x="-540" y="-540" rx="0" ry="0" width="1080" height="1080" />
</g>
		<g transform="matrix(4.7 0 0 4.7 -2.73 2.73)"  >
<circle style="stroke: rgb(0,0,0); stroke-width: 0; stroke-dasharray: none; stroke-linecap: butt; stroke-dashoffset: 0; stroke-linejoin: miter; stroke-miterlimit: 4; fill: rgb(255,255,254); fill-rule: nonzero; opacity: 1;" vector-effect="non-scaling-stroke"  cx="0" cy="0" r="35" />
</g>
		<g transform="matrix(0.13 0 0 -0.13 0 0)"  >
<path style="stroke: none; stroke-width: 1; stroke-dasharray: none; stroke-linecap: butt; stroke-dashoffset: 0; stroke-linejoin: miter; stroke-miterlimit: 4; fill: rgb(0,0,0); fill-rule: nonzero; opacity: 1;" vector-effect="non-scaling-stroke"  transform=" translate(-1579.9, -1562.77)" d="M 1404 2990 C 1151 2963 894 2871 685 2732 C 350 2511 137 2199 54 1810 C 27 1684 29 1430 59 1293 C 195 652 763 180 1456 131 C 1909 99 2317 232 2647 519 C 2875 717 3038 995 3101 1293 C 3130 1429 3133 1673 3107 1804 C 3045 2114 2882 2396 2647 2601 C 2308 2897 1857 3038 1404 2990 z M 2584 2127 C 2607 2090 2514 1948 2284 1674 C 2233 1613 2178 1541 2162 1514 C 2112 1429 1992 1207 1975 1168 C 1961 1132 1961 1130 1978 1130 C 2004 1130 2069 1183 2125 1250 C 2151 1280 2181 1316 2192 1329 C 2220 1362 2240 1342 2216 1304 C 2182 1253 2045 1118 2007 1098 C 1912 1050 1881 1105 1927 1238 C 1930 1247 1909 1232 1879 1203 C 1794 1122 1736 1090 1673 1090 C 1624 1090 1618 1092 1600 1123 C 1563 1183 1584 1281 1657 1394 C 1774 1576 1955 1672 2049 1603 C 2083 1577 2090 1575 2090 1592 C 2090 1608 2210 1816 2278 1919 C 2341 2013 2431 2108 2482 2133 C 2522 2154 2569 2151 2584 2127 z M 1425 1995 C 1581 1954 1655 1830 1625 1658 C 1618 1618 1602 1561 1590 1531 C 1540 1405 1398 1224 1276 1131 C 1114 1008 939 964 777 1006 C 616 1047 559 1122 594 1244 C 611 1301 629 1324 655 1318 C 668 1316 665 1308 643 1275 C 602 1216 604 1153 648 1107 C 730 1023 908 1031 1095 1128 C 1181 1173 1328 1311 1394 1410 C 1489 1551 1532 1684 1512 1778 C 1492 1873 1430 1931 1321 1956 C 1130 2002 887 1929 814 1805 C 751 1697 794 1603 913 1587 C 958 1581 968 1574 953 1559 C 938 1544 872 1556 832 1581 C 762 1623 739 1720 779 1798 C 824 1886 952 1968 1086 1994 C 1182 2013 1352 2014 1425 1995 z M 1254 1857 C 1267 1836 1189 1679 1056 1458 C 902 1202 834 1110 799 1110 C 767 1110 767 1135 796 1202 C 849 1321 1047 1657 1146 1797 C 1206 1880 1231 1894 1254 1857 z" stroke-linecap="round" />
</g>
		<g transform="matrix(0.13 0 0 -0.13 110.98 -46.02)"  >
<path style="stroke: none; stroke-width: 1; stroke-dasharray: none; stroke-linecap: butt; stroke-dashoffset: 0; stroke-linejoin: miter; stroke-miterlimit: 4; fill: rgb(0,0,0); fill-rule: nonzero; opacity: 1;" vector-effect="non-scaling-stroke"  transform=" translate(-2412.24, -1907.95)" d="M 2463 2013 C 2386 1899 2277 1720 2281 1716 C 2286 1711 2424 1890 2480 1975 C 2539 2063 2555 2100 2536 2100 C 2528 2100 2496 2061 2463 2013 z" stroke-linecap="round" />
</g>
		<g transform="matrix(0.13 0 0 -0.13 36.58 27.59)"  >
<path style="stroke: none; stroke-width: 1; stroke-dasharray: none; stroke-linecap: butt; stroke-dashoffset: 0; stroke-linejoin: miter; stroke-miterlimit: 4; fill: rgb(0,0,0); fill-rule: nonzero; opacity: 1;" vector-effect="non-scaling-stroke"  transform=" translate(-1854.26, -1355.87)" d="M 1955 1574 C 1906 1549 1862 1501 1788 1390 C 1714 1281 1660 1178 1660 1147 C 1660 1122 1683 1116 1727 1131 C 1752 1139 1798 1176 1866 1244 C 1949 1326 1975 1360 2009 1427 C 2054 1518 2059 1549 2032 1573 C 2009 1594 1993 1594 1955 1574 z" stroke-linecap="round" />
</g>
</g>
</g>
</svg>